<svg width="24.986328" height="21.608398" viewBox="0 0 24.9863 21.6084" fill="none" xmlns="http://www.w3.org/2000/svg" xmlns:xlink="http://www.w3.org/1999/xlink">
	<desc>
			Created with Pixso.
	</desc>
	<defs>
		<clipPath id="clip2_6946">
			<rect id="Icons-instagram" width="14.575342" height="12.604972" transform="translate(5.205566 4.501953)" fill="white" fill-opacity="0"/>
		</clipPath>
	</defs>
	<ellipse id="Ellipse 9" cx="12.493164" cy="10.804199" rx="12.493151" ry="10.804261" fill="#FFB400" fill-opacity="1.000000"/>
	<rect id="Icons-instagram" width="14.575342" height="12.604972" transform="translate(5.205566 4.501953)" fill="#FFFFFF" fill-opacity="0"/>
	<rect id="Icons-instagram" width="14.575342" height="12.604972" transform="translate(5.205566 4.501953)" fill="#FFFFFF" fill-opacity="0"/>
	<rect id="Icons-instagram" width="14.575342" height="12.604972" transform="translate(5.205566 4.501953)" fill="#FFFFFF" fill-opacity="0"/>
	<g clip-path="url(#clip2_6946)">
		<path id="Vector" d="M12.49 5.55C14.14 5.55 14.34 5.55 14.99 5.58C15.64 5.61 16.08 5.69 16.47 5.82C16.87 5.96 17.2 6.14 17.54 6.43C17.85 6.69 18.09 7.01 18.24 7.36C18.39 7.69 18.49 8.08 18.53 8.64C18.55 9.19 18.56 9.37 18.56 10.8C18.56 12.23 18.56 12.4 18.53 12.96C18.49 13.52 18.39 13.9 18.24 14.24C18.09 14.59 17.85 14.91 17.54 15.17C17.24 15.44 16.87 15.64 16.47 15.78C16.08 15.91 15.64 15.99 14.99 16.02C14.34 16.05 14.14 16.05 12.49 16.05C10.84 16.05 10.63 16.05 9.99 16.02C9.34 15.99 8.9 15.91 8.51 15.78C8.11 15.64 7.74 15.44 7.43 15.17C7.13 14.91 6.89 14.59 6.73 14.24C6.58 13.91 6.48 13.52 6.45 12.96C6.42 12.4 6.42 12.23 6.42 10.8C6.42 9.37 6.42 9.19 6.45 8.64C6.48 8.08 6.58 7.69 6.73 7.36C6.89 7.01 7.13 6.69 7.43 6.43C7.74 6.16 8.11 5.95 8.51 5.82C8.9 5.69 9.34 5.61 9.99 5.58C10.63 5.55 10.84 5.55 12.49 5.55ZM12.49 8.17C11.68 8.17 10.91 8.45 10.34 8.94C9.77 9.44 9.45 10.1 9.45 10.8C9.45 11.5 9.77 12.16 10.34 12.66C10.91 13.15 11.68 13.43 12.49 13.43C13.29 13.43 14.07 13.15 14.64 12.66C15.21 12.16 15.52 11.5 15.52 10.8C15.52 10.1 15.21 9.44 14.64 8.94C14.07 8.45 13.29 8.17 12.49 8.17ZM16.44 8.04C16.44 7.87 16.36 7.7 16.21 7.58C16.07 7.45 15.88 7.39 15.68 7.39C15.48 7.39 15.28 7.45 15.14 7.58C15 7.7 14.92 7.87 14.92 8.04C14.92 8.22 15 8.38 15.14 8.51C15.28 8.63 15.48 8.7 15.68 8.7C15.88 8.7 16.07 8.63 16.21 8.51C16.36 8.38 16.44 8.22 16.44 8.04ZM12.49 9.22C12.97 9.22 13.43 9.39 13.78 9.69C14.12 9.98 14.31 10.38 14.31 10.8C14.31 11.22 14.12 11.62 13.78 11.91C13.43 12.21 12.97 12.38 12.49 12.38C12.01 12.38 11.54 12.21 11.2 11.91C10.86 11.62 10.67 11.22 10.67 10.8C10.67 10.38 10.86 9.98 11.2 9.69C11.54 9.39 12.01 9.22 12.49 9.22Z" fill="#2B2B2B" fill-opacity="1.000000" fill-rule="nonzero"/>
	</g>
</svg>
