<svg width="7.441406" height="14.884277" viewBox="0 0 7.44141 14.8843" fill="none" xmlns="http://www.w3.org/2000/svg" xmlns:xlink="http://www.w3.org/1999/xlink">
	<desc>
			Created with Pixso.
	</desc>
	<defs/>
	<path id="Vector" d="M5.55 14.49C5.64 14.6 5.75 14.69 5.88 14.76C6 14.82 6.14 14.86 6.27 14.87C6.41 14.89 6.55 14.87 6.69 14.83C6.82 14.79 6.95 14.72 7.05 14.63C7.16 14.54 7.25 14.43 7.32 14.31C7.38 14.18 7.42 14.05 7.43 13.91C7.44 13.77 7.43 13.63 7.39 13.5C7.34 13.36 7.28 13.24 7.19 13.13L2.44 7.44L7.19 1.74C7.28 1.64 7.34 1.51 7.39 1.38C7.43 1.24 7.44 1.1 7.43 0.96C7.42 0.82 7.38 0.69 7.32 0.56C7.25 0.44 7.16 0.33 7.05 0.24C6.95 0.15 6.82 0.08 6.69 0.04C6.55 0 6.41 -0.01 6.27 0C6.14 0.01 6 0.05 5.88 0.12C5.75 0.18 5.64 0.27 5.55 0.38L0.24 6.76C0.08 6.95 0 7.19 0 7.44C0 7.69 0.08 7.93 0.24 8.12L5.55 14.49Z" fill="#FFB400" fill-opacity="1.000000" fill-rule="nonzero"/>
</svg>
