<svg width="40.000000" height="40.000000" viewBox="0 0 40 40" fill="none" xmlns="http://www.w3.org/2000/svg" xmlns:xlink="http://www.w3.org/1999/xlink">
	<desc>
			Created with Pixso.
	</desc>
	<defs>
		<clipPath id="clip2_6602">
			<rect id="Icons/Contact" width="18.000000" height="18.000000" transform="translate(11.000000 11.000000)" fill="white" fill-opacity="0"/>
		</clipPath>
	</defs>
	<circle id="Ellipse 14" cx="20.000000" cy="20.000000" r="20.000000" fill="#F0F0F6" fill-opacity="1.000000"/>
	<rect id="Icons/Contact" width="18.000000" height="18.000000" transform="translate(11.000000 11.000000)" fill="#FFFFFF" fill-opacity="0"/>
	<rect id="Icons/Contact" width="18.000000" height="18.000000" transform="translate(11.000000 11.000000)" fill="#FFFFFF" fill-opacity="0"/>
	<rect id="Icons/Contact" width="18.000000" height="18.000000" transform="translate(11.000000 11.000000)" fill="#FFFFFF" fill-opacity="0"/>
	<rect id="Icons/Contact" width="18.000000" height="18.000000" transform="translate(11.000000 11.000000)" fill="#727272" fill-opacity="0"/>
	<g clip-path="url(#clip2_6602)">
		<path id="Vector" d="M15.84 25.25L12.5 27.87L12.5 14C12.5 13.8 12.57 13.61 12.71 13.46C12.86 13.32 13.05 13.25 13.25 13.25L26.75 13.25C26.94 13.25 27.13 13.32 27.28 13.46C27.42 13.61 27.5 13.8 27.5 14L27.5 24.5C27.5 24.69 27.42 24.88 27.28 25.03C27.13 25.17 26.94 25.25 26.75 25.25L15.84 25.25Z" fill="#767676" fill-opacity="1.000000" fill-rule="nonzero"/>
	</g>
</svg>
