<svg width="40.000000" height="40.000000" viewBox="0 0 40 40" fill="none" xmlns="http://www.w3.org/2000/svg" xmlns:xlink="http://www.w3.org/1999/xlink">
	<desc>
			Created with Pixso.
	</desc>
	<defs>
		<clipPath id="clip2_6662">
			<rect id="Icons/cv" width="18.000000" height="18.000000" transform="translate(11.000000 11.000000)" fill="white" fill-opacity="0"/>
		</clipPath>
	</defs>
	<circle id="Ellipse 11" cx="20.000000" cy="20.000000" r="20.000000" fill="#F0F0F6" fill-opacity="1.000000"/>
	<rect id="Icons/cv" width="18.000000" height="18.000000" transform="translate(11.000000 11.000000)" fill="#FFFFFF" fill-opacity="0"/>
	<rect id="Icons/cv" width="18.000000" height="18.000000" transform="translate(11.000000 11.000000)" fill="#FFFFFF" fill-opacity="0"/>
	<rect id="Icons/cv" width="18.000000" height="18.000000" transform="translate(11.000000 11.000000)" fill="#FFFFFF" fill-opacity="0"/>
	<g clip-path="url(#clip2_6662)">
		<path id="Vector" d="M23.76 22.27L20.25 25.62L16.73 22.27C14.1 22.38 12 24.43 12 26.97L12 27.31C12 28.24 12.79 29 13.76 29L26.73 29C27.7 29 28.5 28.24 28.5 27.31L28.5 26.97C28.5 24.43 26.39 22.38 23.76 22.27ZM12.5 13.8L12.73 13.85L12.73 15.91C12.47 16.06 12.29 16.31 12.29 16.62C12.29 16.92 12.46 17.16 12.7 17.31L12.12 19.5C12.06 19.75 12.2 20 12.4 20L13.94 20C14.15 20 14.29 19.75 14.22 19.5L13.65 17.31C13.89 17.16 14.06 16.92 14.06 16.62C14.06 16.31 13.87 16.06 13.62 15.91L13.62 14.06L16.05 14.62C15.73 15.22 15.53 15.9 15.53 16.62C15.53 19.11 17.64 21.12 20.25 21.12C22.85 21.12 24.96 19.11 24.96 16.62C24.96 15.9 24.76 15.22 24.44 14.62L27.99 13.8C28.66 13.65 28.66 12.85 27.99 12.69L20.98 11.08C20.5 10.97 19.99 10.97 19.52 11.08L12.5 12.69C11.83 12.85 11.83 13.65 12.5 13.8Z" fill="#767676" fill-opacity="1.000000" fill-rule="nonzero"/>
	</g>
</svg>
