<svg width="40.000000" height="40.000000" viewBox="0 0 40 40" fill="none" xmlns="http://www.w3.org/2000/svg" xmlns:xlink="http://www.w3.org/1999/xlink">
	<desc>
			Created with Pixso.
	</desc>
	<defs>
		<clipPath id="clip2_6685">
			<rect id="Icons/Home" width="18.000000" height="18.000000" transform="translate(11.000000 11.000000)" fill="white" fill-opacity="0"/>
		</clipPath>
	</defs>
	<circle id="Ellipse 10" cx="20.000000" cy="20.000000" r="20.000000" fill="#FFB400" fill-opacity="1.000000"/>
	<rect id="Icons/Home" width="18.000000" height="18.000000" transform="translate(11.000000 11.000000)" fill="#FFFFFF" fill-opacity="0"/>
	<rect id="Icons/Home" width="18.000000" height="18.000000" transform="translate(11.000000 11.000000)" fill="#FFFFFF" fill-opacity="0"/>
	<rect id="Icons/Home" width="18.000000" height="18.000000" transform="translate(11.000000 11.000000)" fill="#FFFFFF" fill-opacity="0"/>
	<rect id="Icons/Home" width="18.000000" height="18.000000" transform="translate(11.000000 11.000000)" fill="#FFFFFF" fill-opacity="0"/>
	<g clip-path="url(#clip2_6685)">
		<path id="Vector" d="M26 26C26 26.19 25.92 26.38 25.78 26.53C25.63 26.67 25.44 26.75 25.25 26.75L14.75 26.75C14.55 26.75 14.36 26.67 14.21 26.53C14.07 26.38 14 26.19 14 26L14 19.25L11.75 19.25L19.49 12.2C19.63 12.08 19.81 12.01 20 12.01C20.18 12.01 20.36 12.08 20.5 12.2L28.25 19.25L26 19.25L26 26Z" fill="#2B2B2B" fill-opacity="1.000000" fill-rule="nonzero"/>
	</g>
</svg>
