<svg width="40.000000" height="40.000000" viewBox="0 0 40 40" fill="none" xmlns="http://www.w3.org/2000/svg" xmlns:xlink="http://www.w3.org/1999/xlink">
	<desc>
			Created with Pixso.
	</desc>
	<defs>
		<clipPath id="clip2_6646">
			<rect id="Icons/Portfolio" width="18.000000" height="18.000000" transform="translate(11.000000 11.000000)" fill="white" fill-opacity="0"/>
		</clipPath>
	</defs>
	<circle id="Ellipse 12" cx="20.000000" cy="20.000000" r="20.000000" fill="#F0F0F6" fill-opacity="1.000000"/>
	<rect id="Icons/Portfolio" width="18.000000" height="18.000000" transform="translate(11.000000 11.000000)" fill="#FFFFFF" fill-opacity="0"/>
	<rect id="Icons/Portfolio" width="18.000000" height="18.000000" transform="translate(11.000000 11.000000)" fill="#FFFFFF" fill-opacity="0"/>
	<rect id="Icons/Portfolio" width="18.000000" height="18.000000" transform="translate(11.000000 11.000000)" fill="#FFFFFF" fill-opacity="0"/>
	<rect id="Icons/Portfolio" width="18.000000" height="18.000000" transform="translate(11.000000 11.000000)" fill="#727272" fill-opacity="0"/>
	<g clip-path="url(#clip2_6646)">
		<path id="Vector" d="M17.75 20.75L17.75 23L22.25 23L22.25 20.75L27.5 20.75L27.5 26C27.5 26.19 27.42 26.38 27.28 26.53C27.13 26.67 26.94 26.75 26.75 26.75L13.25 26.75C13.05 26.75 12.86 26.67 12.71 26.53C12.57 26.38 12.5 26.19 12.5 26L12.5 20.75L17.75 20.75ZM19.25 19.25L20.75 19.25L20.75 21.5L19.25 21.5L19.25 19.25ZM16.25 14.75L16.25 12.5C16.25 12.3 16.32 12.11 16.46 11.96C16.61 11.82 16.8 11.75 17 11.75L23 11.75C23.19 11.75 23.38 11.82 23.53 11.96C23.67 12.11 23.75 12.3 23.75 12.5L23.75 14.75L26.75 14.75C26.94 14.75 27.13 14.82 27.28 14.96C27.42 15.11 27.5 15.3 27.5 15.5L27.5 19.25L22.25 19.25L22.25 17.75L17.75 17.75L17.75 19.25L12.5 19.25L12.5 15.5C12.5 15.3 12.57 15.11 12.71 14.96C12.86 14.82 13.05 14.75 13.25 14.75L16.25 14.75ZM17.75 13.25L17.75 14.75L22.25 14.75L22.25 13.25L17.75 13.25Z" fill="#767676" fill-opacity="1.000000" fill-rule="nonzero"/>
	</g>
</svg>
