<svg width="40.000000" height="40.000000" viewBox="0 0 40 40" fill="none" xmlns="http://www.w3.org/2000/svg" xmlns:xlink="http://www.w3.org/1999/xlink">
	<desc>
			Created with Pixso.
	</desc>
	<defs>
		<clipPath id="clip2_6671">
			<rect id="file-code" width="16.500000" height="18.000000" transform="translate(12.000000 11.000000)" fill="white" fill-opacity="0"/>
		</clipPath>
		<clipPath id="clip2_6670">
			<rect id="Icons/Services" width="18.000000" height="18.000000" transform="translate(11.000000 11.000000)" fill="white" fill-opacity="0"/>
		</clipPath>
	</defs>
	<circle id="Ellipse 10" cx="20.000000" cy="20.000000" r="20.000000" fill="#F0F0F6" fill-opacity="1.000000"/>
	<rect id="Icons/Services" width="18.000000" height="18.000000" transform="translate(11.000000 11.000000)" fill="#FFFFFF" fill-opacity="0"/>
	<rect id="Icons/Services" width="18.000000" height="18.000000" transform="translate(11.000000 11.000000)" fill="#FFFFFF" fill-opacity="0"/>
	<g clip-path="url(#clip2_6670)">
		<rect id="file-code" width="16.500000" height="18.000000" transform="translate(12.000000 11.000000)" fill="#000000" fill-opacity="0"/>
		<g clip-path="url(#clip2_6671)">
			<path id="Vector" d="M28.5 15.28L28.5 15.5L23 15.5L23 11L23.26 11C23.53 11 23.79 11.08 23.98 11.24L28.19 14.69C28.39 14.84 28.5 15.06 28.5 15.28ZM22.65 16.62C22.08 16.62 21.62 16.24 21.62 15.78L21.62 11L13.03 11C12.46 11 12 11.37 12 11.84L12 28.15C12 28.62 12.46 29 13.03 29L27.46 29C28.03 29 28.5 28.62 28.5 28.15L28.5 16.62L22.65 16.62ZM17.29 25.08C17.27 25.09 17.24 25.11 17.22 25.12C17.19 25.13 17.16 25.13 17.13 25.14C17.1 25.14 17.07 25.13 17.04 25.12C17.01 25.11 16.98 25.1 16.96 25.08L14.17 22.95C14.15 22.93 14.13 22.91 14.12 22.88C14.11 22.86 14.1 22.83 14.1 22.81C14.1 22.78 14.11 22.76 14.12 22.73C14.13 22.71 14.15 22.69 14.17 22.67L16.96 20.53C16.98 20.51 17.01 20.5 17.04 20.49C17.07 20.48 17.1 20.48 17.13 20.48C17.16 20.48 17.19 20.49 17.22 20.5C17.24 20.51 17.27 20.52 17.29 20.54L18.13 21.27C18.15 21.29 18.17 21.31 18.18 21.34C18.19 21.36 18.19 21.39 18.19 21.41C18.19 21.44 18.18 21.46 18.17 21.49C18.16 21.51 18.14 21.53 18.11 21.55L16.36 22.81L18.11 24.07C18.14 24.09 18.16 24.11 18.17 24.13C18.18 24.15 18.19 24.18 18.19 24.2C18.19 24.23 18.19 24.25 18.18 24.28C18.17 24.3 18.15 24.32 18.13 24.34L17.29 25.08ZM19.49 26.85L18.31 26.57C18.25 26.56 18.2 26.52 18.17 26.48C18.15 26.43 18.14 26.38 18.16 26.33L20.8 18.89C20.81 18.85 20.85 18.81 20.91 18.78C20.96 18.76 21.02 18.75 21.08 18.77L22.26 19.05C22.29 19.05 22.32 19.06 22.34 19.08C22.37 19.1 22.39 19.11 22.4 19.14C22.42 19.16 22.42 19.18 22.43 19.21C22.43 19.23 22.43 19.26 22.42 19.28L19.78 26.72C19.77 26.74 19.76 26.77 19.74 26.79C19.72 26.81 19.7 26.82 19.67 26.83C19.64 26.85 19.61 26.85 19.58 26.86C19.55 26.86 19.52 26.86 19.49 26.85ZM26.4 22.95L23.61 25.08C23.59 25.1 23.57 25.11 23.54 25.12C23.51 25.13 23.48 25.14 23.45 25.14C23.42 25.13 23.39 25.13 23.36 25.12C23.33 25.11 23.31 25.09 23.29 25.08L22.45 24.34C22.42 24.32 22.41 24.3 22.4 24.28C22.39 24.25 22.38 24.23 22.38 24.2C22.38 24.18 22.39 24.15 22.41 24.13C22.42 24.11 22.44 24.09 22.46 24.07L24.21 22.81L22.46 21.55C22.44 21.53 22.42 21.51 22.41 21.49C22.39 21.46 22.38 21.44 22.38 21.41C22.38 21.39 22.39 21.36 22.4 21.34C22.41 21.31 22.42 21.29 22.45 21.27L23.29 20.54C23.31 20.52 23.33 20.51 23.36 20.5C23.39 20.49 23.42 20.48 23.45 20.48C23.48 20.48 23.51 20.48 23.54 20.49C23.57 20.5 23.59 20.51 23.61 20.53L26.4 22.67C26.43 22.69 26.44 22.71 26.46 22.73C26.47 22.76 26.48 22.78 26.48 22.81C26.48 22.83 26.47 22.86 26.46 22.88C26.44 22.91 26.43 22.93 26.4 22.95Z" fill="#767676" fill-opacity="1.000000" fill-rule="nonzero"/>
		</g>
	</g>
</svg>
