<svg width="25.000000" height="25.000000" viewBox="0 0 25 25" fill="none" xmlns="http://www.w3.org/2000/svg" xmlns:xlink="http://www.w3.org/1999/xlink">
	<desc>
			Created with Pixso.
	</desc>
	<defs/>
	<path id="Vector" d="M12.5 25C5.59 25 0 19.4 0 12.5C0 5.59 5.59 0 12.5 0C19.4 0 25 5.59 25 12.5C25 19.4 19.4 25 12.5 25ZM4.16 18.03C4.98 19.26 6.06 20.29 7.33 21.05C8.6 21.81 10.02 22.28 11.49 22.42C12.96 22.57 14.45 22.38 15.84 21.88C17.23 21.39 18.5 20.59 19.54 19.54C20.59 18.49 21.39 17.23 21.89 15.84C22.38 14.45 22.57 12.96 22.42 11.49C22.28 10.02 21.81 8.6 21.05 7.33C20.29 6.06 19.26 4.98 18.03 4.16C18.57 6.08 18.58 8.11 18.08 10.04C17.57 11.97 16.56 13.73 15.15 15.15C13.74 16.56 11.97 17.57 10.04 18.08C8.11 18.58 6.08 18.56 4.16 18.03Z" fill="#2B2B2B" fill-opacity="1.000000" fill-rule="nonzero"/>
</svg>
